<svg width="206" height="14" viewBox="0 0 206 14" fill="none" xmlns="http://www.w3.org/2000/svg">
<path d="M131.16 3.42383C131.16 4.36328 130.839 5.08691 130.195 5.59473C129.556 6.09831 128.64 6.3501 127.447 6.3501H126.355V10H125.276V0.719727H127.682C130.001 0.719727 131.16 1.62109 131.16 3.42383ZM126.355 5.42334H127.326C128.283 5.42334 128.974 5.26888 129.402 4.95996C129.829 4.65104 130.043 4.15592 130.043 3.47461C130.043 2.861 129.842 2.40397 129.44 2.10352C129.038 1.80306 128.412 1.65283 127.561 1.65283H126.355V5.42334Z" fill="#1EA4CE"/>
<path d="M136.124 2.91602C136.433 2.91602 136.71 2.94141 136.956 2.99219L136.81 3.96973C136.522 3.90625 136.268 3.87451 136.048 3.87451C135.485 3.87451 135.003 4.10303 134.601 4.56006C134.203 5.01709 134.004 5.58626 134.004 6.26758V10H132.95V3.04297H133.82L133.94 4.33154H133.991C134.249 3.87874 134.56 3.52962 134.924 3.28418C135.288 3.03874 135.688 2.91602 136.124 2.91602Z" fill="#1EA4CE"/>
<path d="M139.311 10H138.257V3.04297H139.311V10ZM138.168 1.15771C138.168 0.916504 138.227 0.740885 138.346 0.630859C138.464 0.516602 138.612 0.459473 138.79 0.459473C138.959 0.459473 139.105 0.516602 139.228 0.630859C139.351 0.745117 139.412 0.920736 139.412 1.15771C139.412 1.39469 139.351 1.57243 139.228 1.69092C139.105 1.80518 138.959 1.8623 138.79 1.8623C138.612 1.8623 138.464 1.80518 138.346 1.69092C138.227 1.57243 138.168 1.39469 138.168 1.15771Z" fill="#1EA4CE"/>
<path d="M143.068 10L140.428 3.04297H141.558L143.056 7.16895C143.394 8.13379 143.593 8.76009 143.652 9.04785H143.703C143.75 8.82357 143.896 8.36019 144.141 7.65771C144.391 6.95101 144.947 5.41276 145.811 3.04297H146.94L144.3 10H143.068Z" fill="#1EA4CE"/>
<path d="M152.336 10L152.126 9.00977H152.076C151.729 9.44564 151.382 9.74186 151.035 9.89844C150.692 10.0508 150.262 10.127 149.746 10.127C149.056 10.127 148.515 9.94922 148.121 9.59375C147.732 9.23828 147.537 8.73258 147.537 8.07666C147.537 6.67171 148.661 5.93538 150.908 5.86768L152.088 5.82959V5.39795C152.088 4.85205 151.97 4.45003 151.733 4.19189C151.5 3.92952 151.126 3.79834 150.609 3.79834C150.03 3.79834 149.374 3.97607 148.642 4.33154L148.318 3.52539C148.661 3.33919 149.035 3.1932 149.441 3.0874C149.852 2.98161 150.262 2.92871 150.673 2.92871C151.502 2.92871 152.116 3.11279 152.514 3.48096C152.916 3.84912 153.117 4.43945 153.117 5.25195V10H152.336ZM149.956 9.25732C150.611 9.25732 151.126 9.07747 151.498 8.71777C151.875 8.35807 152.063 7.85449 152.063 7.20703V6.57861L151.009 6.62305C150.171 6.65267 149.566 6.78385 149.194 7.0166C148.826 7.24512 148.642 7.6027 148.642 8.08936C148.642 8.47021 148.756 8.76009 148.984 8.95898C149.217 9.15788 149.541 9.25732 149.956 9.25732Z" fill="#1EA4CE"/>
<path d="M158.074 10.127C157.067 10.127 156.286 9.81803 155.732 9.2002C155.182 8.57812 154.907 7.70003 154.907 6.56592C154.907 5.40218 155.186 4.50293 155.745 3.86816C156.307 3.2334 157.107 2.91602 158.144 2.91602C158.478 2.91602 158.813 2.95199 159.147 3.02393C159.481 3.09587 159.744 3.1805 159.934 3.27783L159.61 4.17285C159.378 4.07975 159.124 4.00358 158.849 3.94434C158.574 3.88086 158.33 3.84912 158.119 3.84912C156.705 3.84912 155.999 4.75049 155.999 6.55322C155.999 7.40804 156.17 8.06396 156.513 8.521C156.86 8.97803 157.372 9.20654 158.049 9.20654C158.629 9.20654 159.223 9.08171 159.833 8.83203V9.76514C159.367 10.0063 158.781 10.127 158.074 10.127Z" fill="#1EA4CE"/>
<path d="M160.385 3.04297H161.515L163.038 7.01025C163.372 7.91585 163.58 8.56966 163.66 8.97168H163.711C163.766 8.75586 163.88 8.3877 164.054 7.86719C164.231 7.34245 164.807 5.73438 165.78 3.04297H166.91L163.92 10.9648C163.624 11.7477 163.277 12.3021 162.879 12.6279C162.486 12.958 162.001 13.123 161.426 13.123C161.104 13.123 160.787 13.0871 160.474 13.0151V12.1709C160.706 12.2217 160.967 12.2471 161.254 12.2471C161.978 12.2471 162.494 11.8408 162.803 11.0283L163.19 10.0381L160.385 3.04297Z" fill="#1EA4CE"/>
<path d="M177.46 3.42383C177.46 4.36328 177.138 5.08691 176.495 5.59473C175.856 6.09831 174.94 6.3501 173.747 6.3501H172.655V10H171.576V0.719727H173.981C176.3 0.719727 177.46 1.62109 177.46 3.42383ZM172.655 5.42334H173.626C174.582 5.42334 175.274 5.26888 175.702 4.95996C176.129 4.65104 176.343 4.15592 176.343 3.47461C176.343 2.861 176.142 2.40397 175.74 2.10352C175.338 1.80306 174.711 1.65283 173.861 1.65283H172.655V5.42334Z" fill="#1EA4CE"/>
<path d="M185.255 6.51514C185.255 7.64925 184.969 8.53581 184.398 9.1748C183.827 9.80957 183.037 10.127 182.03 10.127C181.408 10.127 180.856 9.98096 180.374 9.68896C179.891 9.39697 179.519 8.97803 179.256 8.43213C178.994 7.88623 178.863 7.24723 178.863 6.51514C178.863 5.38102 179.146 4.4987 179.713 3.86816C180.28 3.2334 181.068 2.91602 182.075 2.91602C183.048 2.91602 183.82 3.23975 184.392 3.88721C184.967 4.53467 185.255 5.41064 185.255 6.51514ZM179.955 6.51514C179.955 7.40381 180.132 8.08089 180.488 8.54639C180.843 9.01188 181.366 9.24463 182.056 9.24463C182.745 9.24463 183.268 9.014 183.624 8.55273C183.983 8.08724 184.163 7.40804 184.163 6.51514C184.163 5.6307 183.983 4.95996 183.624 4.50293C183.268 4.04167 182.741 3.81104 182.043 3.81104C181.353 3.81104 180.833 4.03743 180.481 4.49023C180.13 4.94303 179.955 5.618 179.955 6.51514Z" fill="#1EA4CE"/>
<path d="M188.162 10H187.108V0.123047H188.162V10Z" fill="#1EA4CE"/>
<path d="M191.45 10H190.396V3.04297H191.45V10ZM190.308 1.15771C190.308 0.916504 190.367 0.740885 190.485 0.630859C190.604 0.516602 190.752 0.459473 190.93 0.459473C191.099 0.459473 191.245 0.516602 191.368 0.630859C191.49 0.745117 191.552 0.920736 191.552 1.15771C191.552 1.39469 191.49 1.57243 191.368 1.69092C191.245 1.80518 191.099 1.8623 190.93 1.8623C190.752 1.8623 190.604 1.80518 190.485 1.69092C190.367 1.57243 190.308 1.39469 190.308 1.15771Z" fill="#1EA4CE"/>
<path d="M196.465 10.127C195.458 10.127 194.677 9.81803 194.123 9.2002C193.572 8.57812 193.297 7.70003 193.297 6.56592C193.297 5.40218 193.577 4.50293 194.135 3.86816C194.698 3.2334 195.498 2.91602 196.535 2.91602C196.869 2.91602 197.203 2.95199 197.538 3.02393C197.872 3.09587 198.134 3.1805 198.325 3.27783L198.001 4.17285C197.768 4.07975 197.514 4.00358 197.239 3.94434C196.964 3.88086 196.721 3.84912 196.509 3.84912C195.096 3.84912 194.389 4.75049 194.389 6.55322C194.389 7.40804 194.561 8.06396 194.903 8.521C195.25 8.97803 195.762 9.20654 196.439 9.20654C197.019 9.20654 197.614 9.08171 198.223 8.83203V9.76514C197.758 10.0063 197.172 10.127 196.465 10.127Z" fill="#1EA4CE"/>
<path d="M198.775 3.04297H199.905L201.429 7.01025C201.763 7.91585 201.97 8.56966 202.051 8.97168H202.102C202.157 8.75586 202.271 8.3877 202.444 7.86719C202.622 7.34245 203.198 5.73438 204.171 3.04297H205.301L202.311 10.9648C202.015 11.7477 201.668 12.3021 201.27 12.6279C200.876 12.958 200.392 13.123 199.816 13.123C199.495 13.123 199.177 13.0871 198.864 13.0151V12.1709C199.097 12.2217 199.357 12.2471 199.645 12.2471C200.369 12.2471 200.885 11.8408 201.194 11.0283L201.581 10.0381L198.775 3.04297Z" fill="#1EA4CE"/>
<path d="M104.041 5.25195C104.041 4.73991 104.16 4.35059 104.396 4.08398C104.638 3.81738 104.987 3.68408 105.444 3.68408C105.888 3.68408 106.233 3.81527 106.479 4.07764C106.724 4.34001 106.847 4.73145 106.847 5.25195C106.847 5.75553 106.724 6.14486 106.479 6.41992C106.237 6.69076 105.892 6.82617 105.444 6.82617C104.991 6.82617 104.644 6.68864 104.403 6.41357C104.162 6.13428 104.041 5.74707 104.041 5.25195Z" fill="#1EA4CE"/>
<path d="M5.66846 3.27783C5.13949 3.27783 4.73112 3.46191 4.44336 3.83008C4.15983 4.19824 4.01807 4.70817 4.01807 5.35986C4.01807 6.0708 4.15137 6.59766 4.41797 6.94043C4.6888 7.2832 5.1014 7.45459 5.65576 7.45459C6.01969 7.45459 6.46615 7.35938 6.99512 7.16895V7.95605C6.79199 8.04069 6.58252 8.11263 6.3667 8.17188C6.15511 8.23112 5.9012 8.26074 5.60498 8.26074C4.78402 8.26074 4.15348 8.00684 3.71338 7.49902C3.27327 6.98698 3.05322 6.27393 3.05322 5.35986C3.05322 4.47542 3.28597 3.77295 3.75146 3.25244C4.22119 2.73193 4.86019 2.47168 5.66846 2.47168C6.21012 2.47168 6.73063 2.59863 7.22998 2.85254L6.86182 3.60156C6.40479 3.38574 6.007 3.27783 5.66846 3.27783ZM0.634766 5.35986C0.634766 4.51351 0.846354 3.72005 1.26953 2.97949C1.69271 2.23893 2.27458 1.65495 3.01514 1.22754C3.7557 0.80013 4.55339 0.586426 5.4082 0.586426C6.25456 0.586426 7.04801 0.798014 7.78857 1.22119C8.52913 1.64437 9.11312 2.22624 9.54053 2.9668C9.96794 3.70736 10.1816 4.50505 10.1816 5.35986C10.1816 6.19352 9.9764 6.9764 9.56592 7.7085C9.15544 8.44059 8.57992 9.02669 7.83936 9.4668C7.0988 9.9069 6.28841 10.127 5.4082 10.127C4.53223 10.127 3.72396 9.90902 2.9834 9.47314C2.24284 9.03304 1.6652 8.44694 1.25049 7.71484C0.840007 6.98275 0.634766 6.19775 0.634766 5.35986ZM1.30127 5.35986C1.30127 6.09196 1.48535 6.77751 1.85352 7.4165C2.22168 8.05127 2.72314 8.55273 3.35791 8.9209C3.99691 9.28483 4.68034 9.4668 5.4082 9.4668C6.14453 9.4668 6.82796 9.28271 7.4585 8.91455C8.08903 8.54639 8.58838 8.04915 8.95654 7.42285C9.32894 6.79232 9.51514 6.10465 9.51514 5.35986C9.51514 4.62354 9.33105 3.9401 8.96289 3.30957C8.59473 2.67904 8.09538 2.17969 7.46484 1.81152C6.83854 1.43913 6.15299 1.25293 5.4082 1.25293C4.67188 1.25293 3.98844 1.43701 3.35791 1.80518C2.72738 2.17334 2.22591 2.67269 1.85352 3.30322C1.48535 3.92952 1.30127 4.61507 1.30127 5.35986Z" fill="#1EA4CE"/>
<path d="M17.5513 10H11.4512V9.09229L13.895 6.63574C14.6398 5.88249 15.1307 5.34505 15.3677 5.02344C15.6047 4.70182 15.7824 4.38867 15.9009 4.08398C16.0194 3.7793 16.0786 3.45133 16.0786 3.1001C16.0786 2.60498 15.9284 2.21354 15.6279 1.92578C15.3275 1.63379 14.9106 1.48779 14.3774 1.48779C13.9924 1.48779 13.6263 1.55127 13.2793 1.67822C12.9365 1.80518 12.5535 2.03581 12.1304 2.37012L11.5718 1.65283C12.4266 0.941895 13.3576 0.586426 14.3647 0.586426C15.2365 0.586426 15.9199 0.81071 16.415 1.25928C16.9102 1.70361 17.1577 2.30241 17.1577 3.05566C17.1577 3.64388 16.9927 4.22575 16.6626 4.80127C16.3325 5.37679 15.7147 6.10465 14.8091 6.98486L12.7778 8.97168V9.02246H17.5513V10Z" fill="#1EA4CE"/>
<path d="M25.0415 5.34717C25.0415 6.95101 24.7876 8.1486 24.2798 8.93994C23.7762 9.73128 23.0039 10.127 21.9629 10.127C20.9642 10.127 20.2046 9.72282 19.6841 8.91455C19.1636 8.10205 18.9033 6.91292 18.9033 5.34717C18.9033 3.73063 19.1551 2.53092 19.6587 1.74805C20.1623 0.965169 20.9303 0.57373 21.9629 0.57373C22.9701 0.57373 23.7339 0.982096 24.2544 1.79883C24.7791 2.61556 25.0415 3.79834 25.0415 5.34717ZM19.9697 5.34717C19.9697 6.6971 20.1284 7.68099 20.4458 8.29883C20.7632 8.91243 21.2689 9.21924 21.9629 9.21924C22.6654 9.21924 23.1732 8.9082 23.4863 8.28613C23.8037 7.65983 23.9624 6.68018 23.9624 5.34717C23.9624 4.01416 23.8037 3.03874 23.4863 2.4209C23.1732 1.79883 22.6654 1.48779 21.9629 1.48779C21.2689 1.48779 20.7632 1.7946 20.4458 2.4082C20.1284 3.01758 19.9697 3.99723 19.9697 5.34717Z" fill="#1EA4CE"/>
<path d="M30.2339 10H29.2056V3.38574C29.2056 2.83561 29.2225 2.3151 29.2563 1.82422C29.1675 1.91309 29.068 2.00618 28.958 2.10352C28.848 2.20085 28.3444 2.61344 27.4473 3.34131L26.8887 2.61768L29.3452 0.719727H30.2339V10Z" fill="#1EA4CE"/>
<path d="M39.8696 4.68066C39.8696 8.31152 38.4647 10.127 35.6548 10.127C35.1639 10.127 34.7746 10.0846 34.4868 10V9.09229C34.8254 9.20231 35.2104 9.25732 35.6421 9.25732C36.6577 9.25732 37.4237 8.94417 37.9399 8.31787C38.4604 7.68734 38.744 6.72249 38.7905 5.42334H38.7144C38.4816 5.77458 38.1727 6.04329 37.7876 6.22949C37.4025 6.41146 36.9688 6.50244 36.4863 6.50244C35.6654 6.50244 35.0137 6.257 34.5312 5.76611C34.0488 5.27523 33.8076 4.58968 33.8076 3.70947C33.8076 2.74463 34.0763 1.98291 34.6138 1.42432C35.1554 0.865723 35.8664 0.586426 36.7466 0.586426C37.3771 0.586426 37.9272 0.749349 38.397 1.0752C38.8709 1.39681 39.2349 1.86865 39.4888 2.49072C39.7427 3.10856 39.8696 3.83854 39.8696 4.68066ZM36.7466 1.48779C36.1414 1.48779 35.6738 1.68245 35.3438 2.07178C35.0137 2.4611 34.8486 3.00277 34.8486 3.69678C34.8486 4.30615 35.001 4.78646 35.3057 5.1377C35.6104 5.4847 36.0737 5.6582 36.6958 5.6582C37.0809 5.6582 37.4342 5.57992 37.7559 5.42334C38.0817 5.26676 38.3377 5.05306 38.5239 4.78223C38.7101 4.51139 38.8032 4.22786 38.8032 3.93164C38.8032 3.4873 38.7165 3.07682 38.543 2.7002C38.3695 2.32357 38.1261 2.02734 37.813 1.81152C37.5041 1.5957 37.1486 1.48779 36.7466 1.48779Z" fill="#1EA4CE"/>
<path d="M49.334 10L46.1855 1.77344H46.1348C46.194 2.42513 46.2236 3.19954 46.2236 4.09668V10H45.2271V0.719727H46.8521L49.791 8.375H49.8418L52.8062 0.719727H54.4185V10H53.3394V4.02051C53.3394 3.33496 53.369 2.59017 53.4282 1.78613H53.3774L50.2036 10H49.334Z" fill="#1EA4CE"/>
<path d="M61.0898 10L60.8804 9.00977H60.8296C60.4826 9.44564 60.1356 9.74186 59.7886 9.89844C59.4458 10.0508 59.0163 10.127 58.5 10.127C57.8102 10.127 57.2686 9.94922 56.875 9.59375C56.4857 9.23828 56.291 8.73258 56.291 8.07666C56.291 6.67171 57.4146 5.93538 59.6616 5.86768L60.8423 5.82959V5.39795C60.8423 4.85205 60.7238 4.45003 60.4868 4.19189C60.2541 3.92952 59.8796 3.79834 59.3633 3.79834C58.7835 3.79834 58.1276 3.97607 57.3955 4.33154L57.0718 3.52539C57.4146 3.33919 57.7891 3.1932 58.1953 3.0874C58.6058 2.98161 59.0163 2.92871 59.4268 2.92871C60.2562 2.92871 60.8698 3.11279 61.2676 3.48096C61.6696 3.84912 61.8706 4.43945 61.8706 5.25195V10H61.0898ZM58.7095 9.25732C59.3654 9.25732 59.8796 9.07747 60.252 8.71777C60.6286 8.35807 60.8169 7.85449 60.8169 7.20703V6.57861L59.7632 6.62305C58.9253 6.65267 58.3201 6.78385 57.9478 7.0166C57.5796 7.24512 57.3955 7.6027 57.3955 8.08936C57.3955 8.47021 57.5098 8.76009 57.7383 8.95898C57.971 9.15788 58.2948 9.25732 58.7095 9.25732Z" fill="#1EA4CE"/>
<path d="M67.2217 2.91602C67.5306 2.91602 67.8078 2.94141 68.0532 2.99219L67.9072 3.96973C67.6195 3.90625 67.3656 3.87451 67.1455 3.87451C66.5827 3.87451 66.1003 4.10303 65.6982 4.56006C65.3005 5.01709 65.1016 5.58626 65.1016 6.26758V10H64.0479V3.04297H64.9175L65.0381 4.33154H65.0889C65.347 3.87874 65.658 3.52962 66.022 3.28418C66.3859 3.03874 66.7858 2.91602 67.2217 2.91602Z" fill="#1EA4CE"/>
<path d="M70.3955 6.43896C70.5775 6.18083 70.8547 5.84229 71.2271 5.42334L73.4741 3.04297H74.7246L71.9062 6.00732L74.9214 10H73.6455L71.189 6.71191L70.3955 7.39746V10H69.3545V0.123047H70.3955V5.35986C70.3955 5.59261 70.3786 5.95231 70.3447 6.43896H70.3955Z" fill="#1EA4CE"/>
<path d="M79.1235 10.127C78.0952 10.127 77.2827 9.8138 76.686 9.1875C76.0936 8.5612 75.7974 7.69157 75.7974 6.57861C75.7974 5.45719 76.0724 4.56641 76.6226 3.90625C77.1769 3.24609 77.9196 2.91602 78.8506 2.91602C79.7223 2.91602 80.4121 3.20378 80.9199 3.7793C81.4277 4.35059 81.6816 5.10596 81.6816 6.04541V6.71191H76.8892C76.9103 7.52865 77.1156 8.1486 77.5049 8.57178C77.8984 8.99495 78.4507 9.20654 79.1616 9.20654C79.9106 9.20654 80.6512 9.04997 81.3833 8.73682V9.67627C81.0109 9.83708 80.6576 9.95133 80.3232 10.019C79.9932 10.091 79.5933 10.127 79.1235 10.127ZM78.8379 3.79834C78.2793 3.79834 77.8328 3.98031 77.4985 4.34424C77.1685 4.70817 76.9738 5.21175 76.9146 5.85498H80.5518C80.5518 5.19059 80.4036 4.68278 80.1074 4.33154C79.8112 3.97607 79.388 3.79834 78.8379 3.79834Z" fill="#1EA4CE"/>
<path d="M85.7314 9.25732C85.9176 9.25732 86.0975 9.24463 86.271 9.21924C86.4445 9.18962 86.582 9.15999 86.6836 9.13037V9.93652C86.5693 9.99154 86.4001 10.036 86.1758 10.0698C85.9557 10.1079 85.7568 10.127 85.5791 10.127C84.2334 10.127 83.5605 9.41813 83.5605 8.00049V3.86182H82.564V3.354L83.5605 2.91602L84.0049 1.43066H84.6143V3.04297H86.6328V3.86182H84.6143V7.95605C84.6143 8.375 84.7137 8.69661 84.9126 8.9209C85.1115 9.14518 85.3844 9.25732 85.7314 9.25732Z" fill="#1EA4CE"/>
</svg>
