<svg width="61" height="24" viewBox="0 0 61 24" fill="none" xmlns="http://www.w3.org/2000/svg">
<path d="M9.01953 17H7.0166L2.10156 9.03613H2.04688L2.08105 9.48047C2.14486 10.3281 2.17676 11.1029 2.17676 11.8047V17H0.693359V7.00586H2.67578L7.57715 14.9287H7.61816C7.60905 14.8239 7.59082 14.4434 7.56348 13.7871C7.53613 13.1263 7.52246 12.6113 7.52246 12.2422V7.00586H9.01953V17ZM14.7891 17.1367C13.6133 17.1367 12.6927 16.7949 12.0273 16.1113C11.3665 15.4232 11.0361 14.4775 11.0361 13.2744C11.0361 12.0394 11.3438 11.0687 11.959 10.3623C12.5742 9.65592 13.4196 9.30273 14.4951 9.30273C15.4932 9.30273 16.2816 9.60579 16.8604 10.2119C17.4391 10.818 17.7285 11.652 17.7285 12.7139V13.582H12.6904C12.7132 14.3158 12.9115 14.8809 13.2852 15.2773C13.6589 15.6693 14.1852 15.8652 14.8643 15.8652C15.3109 15.8652 15.7256 15.8242 16.1084 15.7422C16.4958 15.6556 16.9105 15.5143 17.3525 15.3184V16.624C16.9606 16.8109 16.5641 16.943 16.1631 17.0205C15.762 17.098 15.304 17.1367 14.7891 17.1367ZM14.4951 10.5195C13.9847 10.5195 13.5745 10.6813 13.2646 11.0049C12.9593 11.3285 12.777 11.8001 12.7178 12.4199H16.1494C16.1403 11.7956 15.9899 11.3239 15.6982 11.0049C15.4066 10.6813 15.0055 10.5195 14.4951 10.5195ZM21.2354 13.1377L18.6992 9.43945H20.5312L22.2539 12.085L23.9902 9.43945H25.8086L23.2656 13.1377L25.9385 17H24.1201L22.2539 14.1699L20.3945 17H18.5762L21.2354 13.1377ZM30.0811 15.8379C30.473 15.8379 30.8649 15.7764 31.2568 15.6533V16.8633C31.0791 16.9408 30.849 17.0046 30.5664 17.0547C30.2884 17.1094 29.999 17.1367 29.6982 17.1367C28.1761 17.1367 27.415 16.3346 27.415 14.7305V10.6562H26.3828V9.94531L27.4902 9.35742L28.0371 7.75781H29.0283V9.43945H31.1816V10.6562H29.0283V14.7031C29.0283 15.0905 29.124 15.3776 29.3154 15.5645C29.5114 15.7467 29.7666 15.8379 30.0811 15.8379Z" fill="#697488"/>
<path fill-rule="evenodd" clip-rule="evenodd" d="M55.9332 11.6672C55.8895 11.5621 55.8282 11.4657 55.7407 11.3869L49.6143 5.25618C49.2729 4.91461 48.7216 4.91461 48.3802 5.25618C48.0389 5.59775 48.0389 6.14951 48.3802 6.49108L53.01 11.1242L42.8752 11.1242C42.3938 11.1242 42 11.5183 42 12C42 12.4817 42.3938 12.8758 42.8752 12.8758L53.0188 12.8758L48.389 17.5089C48.0477 17.8505 48.0477 18.4023 48.389 18.7438C48.7303 19.0854 49.2817 19.0854 49.623 18.7438L55.7494 12.6131C55.8282 12.5342 55.8895 12.4379 55.942 12.3328C56.0207 12.1226 56.0207 11.8774 55.9332 11.6672Z" fill="#697488"/>
</svg>
