<svg width="62" height="24" viewBox="0 0 62 24" fill="none" xmlns="http://www.w3.org/2000/svg">
<path d="M39.3291 10.0273C39.3291 11.071 38.9873 11.8708 38.3037 12.4268C37.6201 12.9827 36.6471 13.2607 35.3848 13.2607H34.3457V17H32.7119V7.00586H35.5898C36.8385 7.00586 37.7728 7.26107 38.3926 7.77148C39.0169 8.2819 39.3291 9.03385 39.3291 10.0273ZM34.3457 11.8867H35.2139C36.0524 11.8867 36.6676 11.7409 37.0596 11.4492C37.4515 11.1576 37.6475 10.7018 37.6475 10.082C37.6475 9.50781 37.472 9.07943 37.1211 8.79688C36.7702 8.51432 36.2233 8.37305 35.4805 8.37305H34.3457V11.8867ZM44.9893 9.30273C45.3128 9.30273 45.5794 9.32552 45.7891 9.37109L45.6318 10.8682C45.404 10.8135 45.167 10.7861 44.9209 10.7861C44.2783 10.7861 43.7565 10.9958 43.3555 11.415C42.959 11.8343 42.7607 12.3789 42.7607 13.0488V17H41.1543V9.43945H42.4121L42.624 10.7725H42.7061C42.9567 10.3213 43.2826 9.96354 43.6836 9.69922C44.0892 9.4349 44.5244 9.30273 44.9893 9.30273ZM50.499 17.1367C49.3232 17.1367 48.4027 16.7949 47.7373 16.1113C47.0765 15.4232 46.7461 14.4775 46.7461 13.2744C46.7461 12.0394 47.0537 11.0687 47.6689 10.3623C48.2842 9.65592 49.1296 9.30273 50.2051 9.30273C51.2031 9.30273 51.9915 9.60579 52.5703 10.2119C53.1491 10.818 53.4385 11.652 53.4385 12.7139V13.582H48.4004C48.4232 14.3158 48.6214 14.8809 48.9951 15.2773C49.3688 15.6693 49.8952 15.8652 50.5742 15.8652C51.0208 15.8652 51.4355 15.8242 51.8184 15.7422C52.2057 15.6556 52.6204 15.5143 53.0625 15.3184V16.624C52.6706 16.8109 52.2741 16.943 51.873 17.0205C51.472 17.098 51.014 17.1367 50.499 17.1367ZM50.2051 10.5195C49.6947 10.5195 49.2845 10.6813 48.9746 11.0049C48.6693 11.3285 48.487 11.8001 48.4277 12.4199H51.8594C51.8503 11.7956 51.6999 11.3239 51.4082 11.0049C51.1165 10.6813 50.7155 10.5195 50.2051 10.5195ZM56.9863 17L54.1152 9.43945H55.8105L57.3486 13.835C57.613 14.5732 57.7725 15.1702 57.8271 15.626H57.8818C57.9229 15.2979 58.0824 14.7008 58.3604 13.835L59.8984 9.43945H61.6074L58.7227 17H56.9863Z" fill="#1EA4CE"/>
<path fill-rule="evenodd" clip-rule="evenodd" d="M5.06678 12.3328C5.11054 12.4379 5.1718 12.5343 5.25932 12.6131L11.3857 18.7438C11.7271 19.0854 12.2784 19.0854 12.6198 18.7438C12.9611 18.4023 12.9611 17.8505 12.6198 17.5089L7.98995 12.8758L18.1248 12.8758C18.6062 12.8758 19 12.4817 19 12C19 11.5183 18.6062 11.1242 18.1248 11.1242L7.9812 11.1242L12.611 6.49109C12.9523 6.14951 12.9523 5.59775 12.611 5.25618C12.2697 4.91461 11.7183 4.91461 11.377 5.25618L5.25057 11.3869C5.1718 11.4657 5.11054 11.5621 5.05802 11.6672C4.97926 11.8774 4.97926 12.1226 5.06678 12.3328Z" fill="#1EA4CE"/>
</svg>
